<svg xmlns="http://www.w3.org/2000/svg" width="186.689" height="186.687" viewBox="0 0 186.689 186.687"><defs><style>.a{opacity:0.22;}.b{fill:#6b00fd;}</style></defs><g class="a" transform="translate(-1215.687 34.461)"><path class="b" d="M1229.163-27.723a6.738,6.738,0,0,1-6.74,6.738,6.737,6.737,0,0,1-6.736-6.738,6.737,6.737,0,0,1,6.736-6.738A6.738,6.738,0,0,1,1229.163-27.723Z"/><path class="b" d="M1263.806-27.723a6.737,6.737,0,0,1-6.739,6.738,6.737,6.737,0,0,1-6.737-6.738,6.737,6.737,0,0,1,6.737-6.738A6.737,6.737,0,0,1,1263.806-27.723Z"/><path class="b" d="M1298.447-27.723a6.736,6.736,0,0,1-6.735,6.738,6.736,6.736,0,0,1-6.738-6.738,6.736,6.736,0,0,1,6.738-6.738A6.736,6.736,0,0,1,1298.447-27.723Z"/><path class="b" d="M1333.09-27.723a6.737,6.737,0,0,1-6.739,6.738,6.734,6.734,0,0,1-6.734-6.738,6.734,6.734,0,0,1,6.734-6.738A6.737,6.737,0,0,1,1333.09-27.723Z"/><path class="b" d="M1367.733-27.723a6.737,6.737,0,0,1-6.739,6.738,6.737,6.737,0,0,1-6.737-6.738,6.737,6.737,0,0,1,6.737-6.738A6.737,6.737,0,0,1,1367.733-27.723Z"/><path class="b" d="M1402.376-27.723a6.739,6.739,0,0,1-6.739,6.738,6.738,6.738,0,0,1-6.738-6.738,6.738,6.738,0,0,1,6.738-6.738A6.739,6.739,0,0,1,1402.376-27.723Z"/><path class="b" d="M1229.163,6.919a6.738,6.738,0,1,1-6.74-6.738A6.738,6.738,0,0,1,1229.163,6.919Z"/><path class="b" d="M1263.806,6.919a6.738,6.738,0,1,1-6.739-6.738A6.737,6.737,0,0,1,1263.806,6.919Z"/><path class="b" d="M1298.447,6.919a6.737,6.737,0,1,1-6.735-6.738A6.736,6.736,0,0,1,1298.447,6.919Z"/><path class="b" d="M1333.09,6.919a6.737,6.737,0,1,1-6.739-6.738A6.737,6.737,0,0,1,1333.09,6.919Z"/><path class="b" d="M1367.733,6.919a6.738,6.738,0,1,1-6.739-6.738A6.737,6.737,0,0,1,1367.733,6.919Z"/><path class="b" d="M1402.376,6.919a6.738,6.738,0,1,1-6.739-6.738A6.739,6.739,0,0,1,1402.376,6.919Z"/><path class="b" d="M1229.163,41.562a6.738,6.738,0,1,1-6.74-6.74A6.737,6.737,0,0,1,1229.163,41.562Z"/><path class="b" d="M1263.806,41.562a6.738,6.738,0,1,1-6.739-6.74A6.737,6.737,0,0,1,1263.806,41.562Z"/><path class="b" d="M1298.447,41.562a6.737,6.737,0,1,1-6.735-6.74A6.736,6.736,0,0,1,1298.447,41.562Z"/><path class="b" d="M1333.09,41.562a6.737,6.737,0,1,1-6.739-6.74A6.737,6.737,0,0,1,1333.09,41.562Z"/><path class="b" d="M1367.733,41.562a6.738,6.738,0,1,1-6.739-6.74A6.736,6.736,0,0,1,1367.733,41.562Z"/><path class="b" d="M1402.376,41.562a6.738,6.738,0,1,1-6.739-6.74A6.738,6.738,0,0,1,1402.376,41.562Z"/><path class="b" d="M1229.163,76.2a6.738,6.738,0,1,1-6.74-6.738A6.739,6.739,0,0,1,1229.163,76.2Z"/><path class="b" d="M1263.806,76.2a6.738,6.738,0,1,1-6.739-6.738A6.739,6.739,0,0,1,1263.806,76.2Z"/><path class="b" d="M1298.447,76.2a6.737,6.737,0,1,1-6.735-6.738A6.738,6.738,0,0,1,1298.447,76.2Z"/><path class="b" d="M1333.09,76.2a6.737,6.737,0,1,1-6.739-6.738A6.739,6.739,0,0,1,1333.09,76.2Z"/><path class="b" d="M1367.733,76.2a6.738,6.738,0,1,1-6.739-6.738A6.738,6.738,0,0,1,1367.733,76.2Z"/><path class="b" d="M1402.376,76.2a6.738,6.738,0,1,1-6.739-6.738A6.74,6.74,0,0,1,1402.376,76.2Z"/><path class="b" d="M1229.163,110.845a6.738,6.738,0,1,1-6.74-6.738A6.738,6.738,0,0,1,1229.163,110.845Z"/><path class="b" d="M1263.806,110.845a6.738,6.738,0,1,1-6.739-6.738A6.738,6.738,0,0,1,1263.806,110.845Z"/><path class="b" d="M1298.447,110.845a6.737,6.737,0,1,1-6.735-6.738A6.737,6.737,0,0,1,1298.447,110.845Z"/><path class="b" d="M1333.09,110.845a6.737,6.737,0,1,1-6.739-6.738A6.738,6.738,0,0,1,1333.09,110.845Z"/><path class="b" d="M1367.733,110.845a6.738,6.738,0,1,1-6.739-6.738A6.737,6.737,0,0,1,1367.733,110.845Z"/><path class="b" d="M1402.376,110.845a6.738,6.738,0,1,1-6.739-6.738A6.739,6.739,0,0,1,1402.376,110.845Z"/><path class="b" d="M1229.163,145.488a6.738,6.738,0,1,1-6.74-6.738A6.738,6.738,0,0,1,1229.163,145.488Z"/><path class="b" d="M1263.806,145.488a6.738,6.738,0,1,1-6.739-6.738A6.738,6.738,0,0,1,1263.806,145.488Z"/><path class="b" d="M1298.447,145.488a6.737,6.737,0,1,1-6.735-6.738A6.737,6.737,0,0,1,1298.447,145.488Z"/><path class="b" d="M1333.09,145.488a6.737,6.737,0,1,1-6.739-6.738A6.738,6.738,0,0,1,1333.09,145.488Z"/><path class="b" d="M1367.733,145.488a6.738,6.738,0,1,1-6.739-6.738A6.737,6.737,0,0,1,1367.733,145.488Z"/><path class="b" d="M1402.376,145.488a6.738,6.738,0,1,1-6.739-6.738A6.739,6.739,0,0,1,1402.376,145.488Z"/></g></svg>