<svg xmlns="http://www.w3.org/2000/svg" xmlns:xlink="http://www.w3.org/1999/xlink" width="1933" height="670" viewBox="0 0 1933 670"><defs><style>.a,.c{fill:#fff;}.b{opacity:0.62;clip-path:url(#a);}.c{opacity:0.1;mix-blend-mode:hard-light;isolation:isolate;}</style><clipPath id="a"><rect class="a" width="1933" height="670" rx="24" transform="translate(0 0.459)"/></clipPath></defs><g class="b" transform="translate(0 -0.459)"><path class="c" d="M1736.8,238.17c-81.687,225.659-195.645,431.008-338.838,610.61-148.512,186.1-311.877,324.555-485.46,411.47-182.161,91.21-319.907,92.316-409.424,3.135-68.56-68.3-94.647-177.233-78.947-324.051L74.735,1277.317c1.448,71.4,11.471,135.747,31.191,191.722,44.813,127.205,133.9,205.627,264.776,233.05,62.032,12.81,132.981,10.93,210.626-5.48,78.026-16.485,161.156-46.615,247.074-89.635,252.993-126.676,492.5-326.362,711.837-593.347C1755.212,752,1926.8,454.479,2050.5,129.115Z" transform="matrix(0.883, 0.469, -0.469, 0.883, 886.523, -1192.115)"/><path class="c" d="M2352.766,190.911c-23.132,179.95-113.451,315.291-268.536,402.45-160.939,90.21-373.113,119.413-630.484,86.8-270.091-34.22-510.32-131.832-714.116-290.295C583.544,268.5,480.167,134.653,429.749-9.28L-1.828,97.421c40.4,76.515,92.049,151.717,156.212,225.027,145.809,166.6,343.144,313.379,586.5,436.222C856.12,816.7,979.16,865.587,1106.2,903.923c127.668,38.53,257.019,66.3,384.41,82.436,375.112,47.526,687.93,8.208,929.789-116.715,237.069-122.393,379.253-313.833,422.959-569.045Z" transform="translate(2468.81 685.168) rotate(172)"/></g></svg>