<svg xmlns="http://www.w3.org/2000/svg" width="1073.646" height="227" viewBox="0 0 1073.646 227"><defs><style>.a{opacity:0.16;isolation:isolate;}.b,.e{fill:none;}.b,.c{stroke:#fff;stroke-width:3px;}.c{fill:#fff;}.d{stroke:none;}</style></defs><g class="a" transform="translate(0.383 0.221)"><path class="b" d="M4071.122,4265.7l271.631-71.7,178.678,107.207,170.167-25.5,119.116,118.329L5029.1,4241.9l102.1,92.972" transform="translate(-4071.122 -4180.131)"/><g class="c" transform="translate(252.264 -0.221)"><ellipse class="d" cx="14" cy="14.5" rx="14" ry="14.5"/><ellipse class="e" cx="14" cy="14.5" rx="12.5" ry="13"/></g><g class="c" transform="translate(435.264 107.779)"><ellipse class="d" cx="14.5" cy="13" rx="14.5" ry="13"/><ellipse class="e" cx="14.5" cy="13" rx="13" ry="11.5"/></g><g class="c" transform="translate(607.264 85.779)"><circle class="d" cx="13" cy="13" r="13"/><circle class="e" cx="13" cy="13" r="11.5"/></g><g class="c" transform="translate(726.264 195.778)"><ellipse class="d" cx="14" cy="15.5" rx="14" ry="15.5"/><ellipse class="e" cx="14" cy="15.5" rx="12.5" ry="14"/></g><g class="c" transform="translate(942.264 52.779)"><ellipse class="d" cx="15.5" cy="13" rx="15.5" ry="13"/><ellipse class="e" cx="15.5" cy="13" rx="14" ry="11.5"/></g><g class="c" transform="translate(1045.264 138.778)"><circle class="d" cx="14" cy="14" r="14"/><circle class="e" cx="14" cy="14" r="12.5"/></g></g></svg>